<mxfile host="app.diagrams.net" modified="2024-06-13T14:45:21.242Z" agent="Mozilla/5.0 (Windows NT 10.0; Win64; x64) AppleWebKit/537.36 (KHTML, like Gecko) Chrome/127.0.0.0 Safari/537.36" etag="O-8V0Rohp0OHz0P1FtLi" version="24.5.4" type="device">
  <diagram name="Сторінка-1" id="UlZJeLAvN2E6TRWNOlJw">
    <mxGraphModel dx="1050" dy="603" grid="1" gridSize="1" guides="1" tooltips="1" connect="1" arrows="1" fold="1" page="1" pageScale="1" pageWidth="1169" pageHeight="827" math="0" shadow="0">
      <root>
        <mxCell id="0" />
        <mxCell id="1" style="locked=1;" parent="0" />
        <mxCell id="LB_BB6l1WS-i0Li-uyHr-1" value="" style="shape=image;verticalLabelPosition=bottom;labelBackgroundColor=default;verticalAlign=top;aspect=fixed;imageAspect=0;image=data:image/svg+xml,PHN2ZyB4bWxuczp4bGluaz0iaHR0cDovL3d3dy53My5vcmcvMTk5OS94bGluayIgeG1sbnM9Imh0dHA6Ly93d3cudzMub3JnLzIwMDAvc3ZnIiBjbGFzcz0ic3QxMCIgY29sb3ItaW50ZXJwb2xhdGlvbi1maWx0ZXJzPSJzUkdCIiB4bWw6c3BhY2U9InByZXNlcnZlIiB2aWV3Qm94PSIwIDAgMTE5MC41NSA4NDEuODkiIGhlaWdodD0iMTEuNjkyOWluIiB3aWR0aD0iMTYuNTM1NGluIj4mI3hhOwkmI3hhOwkJJiN4YTsJCQkmI3hhOwkJJiN4YTsJJiN4YTsmI3hhOwk8c3R5bGUgdHlwZT0idGV4dC9jc3MiPiYjeGE7CSYjeGE7CQkuc3QxIHtzdHJva2U6IzAwMDAwMDtzdHJva2UtbGluZWNhcDpyb3VuZDtzdHJva2UtbGluZWpvaW46cm91bmQ7c3Ryb2tlLXdpZHRoOjF9JiN4YTsJCS5zdDIge3N0cm9rZTojMDAwMDAwO3N0cm9rZS1saW5lY2FwOnJvdW5kO3N0cm9rZS1saW5lam9pbjpyb3VuZDtzdHJva2Utd2lkdGg6MC43NX0mI3hhOwkJLnN0MyB7c3Ryb2tlOiMwMDAwMDA7c3Ryb2tlLWxpbmVjYXA6cm91bmQ7c3Ryb2tlLWxpbmVqb2luOnJvdW5kO3N0cm9rZS13aWR0aDowLjI1fSYjeGE7CQkuc3Q0IHtmaWxsOm5vbmU7c3Ryb2tlOm5vbmU7c3Ryb2tlLWxpbmVjYXA6cm91bmQ7c3Ryb2tlLWxpbmVqb2luOnJvdW5kO3N0cm9rZS13aWR0aDowLjc1fSYjeGE7CQkuc3Q1IHtmaWxsOiMwMDAwMDA7Zm9udC1mYW1pbHk6Q2FsaWJyaTtmb250LXNpemU6MC43NWVtO2ZvbnQtc3R5bGU6aXRhbGljO2ZvbnQtd2VpZ2h0OmJvbGR9JiN4YTsJCS5zdDYge2ZvbnQtc2l6ZToxZW19JiN4YTsJCS5zdDcge2ZpbGw6IzAwMDAwMDtmb250LWZhbWlseTpUaW1lcyBOZXcgUm9tYW47Zm9udC1zaXplOjEuMTY2NjZlbTtmb250LXN0eWxlOml0YWxpY30mI3hhOwkJLnN0OCB7Zm9udC1zaXplOjFlbTtsZXR0ZXItc3BhY2luZzotMC4wMTQyODU4ZW19JiN4YTsJCS5zdDkge2ZvbnQtc2l6ZToxZW07bGV0dGVyLXNwYWNpbmc6LTAuMDA3MTQyOTJlbX0mI3hhOwkJLnN0MTAge2ZpbGw6bm9uZTtmaWxsLXJ1bGU6ZXZlbm9kZDtmb250LXNpemU6MTJweDtvdmVyZmxvdzp2aXNpYmxlO3N0cm9rZS1saW5lY2FwOnNxdWFyZTtzdHJva2UtbWl0ZXJsaW1pdDozfSYjeGE7CSYjeGE7CTwvc3R5bGU+JiN4YTsmI3hhOwk8Zz4mI3hhOwkJPHRpdGxlPtCh0YLQvtGA0ZbQvdC60LAgMTwvdGl0bGU+JiN4YTsJCSYjeGE7CQkmI3hhOwkJJiN4YTsJCSYjeGE7CQkmI3hhOwkJPGcgdHJhbnNmb3JtPSJ0cmFuc2xhdGUoMjIuMzkzNywtODI3LjcxNykgcm90YXRlKDMuNzk5MTJFLTA3KSIgaWQ9InNoYXBlMjI5LTEiPiYjeGE7CQkJPHRpdGxlPtCQ0YDQutGD0YguMjI5PC90aXRsZT4mI3hhOwkJCTxwYXRoIGNsYXNzPSJzdDEiIGQ9Ik0wIDg0MS44OSBMMTE1My43IDg0MS44OSIvPiYjeGE7CQk8L2c+JiN4YTsJCTxnIHRyYW5zZm9ybT0idHJhbnNsYXRlKDIwMTcuNywxNC4xNzMyKSByb3RhdGUoOTApIiBpZD0ic2hhcGUyMzUtNCI+JiN4YTsJCQk8dGl0bGU+0JDRgNC60YPRiC4yMzU8L3RpdGxlPiYjeGE7CQkJPHBhdGggY2xhc3M9InN0MiIgZD0iTTAgODQxLjg5IEw4MTMuNTQgODQxLjg5Ii8+JiN4YTsJCTwvZz4mI3hhOwkJPGcgdHJhbnNmb3JtPSJ0cmFuc2xhdGUoODk4LjI5OSwxNC4xNzMyKSByb3RhdGUoOTApIiBpZD0ic2hhcGUyMzgtNyI+JiN4YTsJCQk8dGl0bGU+0JDRgNC60YPRiC4yMzg8L3RpdGxlPiYjeGE7CQkJPHBhdGggY2xhc3M9InN0MSIgZD0iTTAgODQxLjg5IEw4MTMuNTQgODQxLjg5Ii8+JiN4YTsJCTwvZz4mI3hhOwkJPGcgdHJhbnNmb3JtPSJ0cmFuc2xhdGUoNTYuNDA5NCwtMTQuMTczMikiIGlkPSJzaGFwZTIzOS0xMCI+JiN4YTsJCQk8dGl0bGU+0JDRgNC60YPRiC4yMzk8L3RpdGxlPiYjeGE7CQkJPHBhdGggY2xhc3M9InN0MiIgZD0iTTAgODQxLjg5IEwxMTE5LjY5IDg0MS44OSIvPiYjeGE7CQk8L2c+JiN4YTsJCTxnIHRyYW5zZm9ybT0idHJhbnNsYXRlKDExODkuOTgsODQxLjg5KSByb3RhdGUoMTgwKSIgaWQ9InNoYXBlMjExMC0xMyI+JiN4YTsJCQk8dGl0bGU+0JDRgNC60YPRiC4yMTEwPC90aXRsZT4mI3hhOwkJCTxwYXRoIGNsYXNzPSJzdDMiIGQ9Ik0wIDg0MS44OSBMMTE5MC4yNyA4NDEuODkiLz4mI3hhOwkJPC9nPiYjeGE7CQk8ZyB0cmFuc2Zvcm09InRyYW5zbGF0ZSgxMTkwLjU1LDE2ODMuNzgpIHJvdGF0ZSgxODApIiBpZD0ic2hhcGUyMTExLTE2Ij4mI3hhOwkJCTx0aXRsZT7QkNGA0LrRg9GILjIxMTE8L3RpdGxlPiYjeGE7CQkJPHBhdGggY2xhc3M9InN0MyIgZD0iTTAgODQxLjg5IEwxMTkwLjI3IDg0MS44OSIvPiYjeGE7CQk8L2c+JiN4YTsJCTxnIHRyYW5zZm9ybT0idHJhbnNsYXRlKC04NDEuNjA2LDg0Mi40NTcpIHJvdGF0ZSgtOTAuMDM4NikiIGlkPSJzaGFwZTIxMTItMTkiPiYjeGE7CQkJPHRpdGxlPtCQ0YDQutGD0YguMjExMjwvdGl0bGU+JiN4YTsJCQk8cGF0aCBjbGFzcz0ic3QzIiBkPSJNMCA4NDEuODkgTDg0MS44OSA4NDEuODkiLz4mI3hhOwkJPC9nPiYjeGE7CQk8ZyB0cmFuc2Zvcm09InRyYW5zbGF0ZSgyMDMxLjg3LC0wLjU2NjkyOSkgcm90YXRlKDg5Ljk2MTQpIiBpZD0ic2hhcGUyMTEzLTIyIj4mI3hhOwkJCTx0aXRsZT7QkNGA0LrRg9GILjIxMTM8L3RpdGxlPiYjeGE7CQkJPHBhdGggY2xhc3M9InN0MyIgZD0iTTAgODQxLjg5IEw4NDEuODkgODQxLjg5Ii8+JiN4YTsJCTwvZz4mI3hhOwkJPGcgdHJhbnNmb3JtPSJ0cmFuc2xhdGUoNjUxLjI2LC0xNzAuMDc5KSIgaWQ9InNoYXBlMjE4Ni0yNSI+JiN4YTsJCQk8dGl0bGU+0JDRgNC60YPRiC4yMTg2PC90aXRsZT4mI3hhOwkJCTxwYXRoIGNsYXNzPSJzdDIiIGQ9Ik0wIDg0MS44OSBMNTI0LjQxIDg0MS44OSIvPiYjeGE7CQk8L2c+JiN4YTsJCTxnIHRyYW5zZm9ybT0idHJhbnNsYXRlKC02LjM3Nzk1LDgyNy43MTcpIHJvdGF0ZSgtOTApIiBpZD0ic2hhcGUyMTg3LTI4Ij4mI3hhOwkJCTx0aXRsZT7QkNGA0LrRg9GILjIxODc8L3RpdGxlPiYjeGE7CQkJPHBhdGggY2xhc3M9InN0MiIgZD0iTTAgODQxLjg5IEwxNTUuOTEgODQxLjg5Ii8+JiN4YTsJCTwvZz4mI3hhOwkJPGcgdHJhbnNmb3JtPSJ0cmFuc2xhdGUoNjUxLjI2LC0yOC4zNDY1KSIgaWQ9InNoYXBlMjE4OC0zMSI+JiN4YTsJCQk8dGl0bGU+0JDRgNC60YPRiC4yMTg4PC90aXRsZT4mI3hhOwkJCTxwYXRoIGNsYXNzPSJzdDIiIGQ9Ik0wIDg0MS44OSBMMTg0LjI1IDg0MS44OSIvPiYjeGE7CQk8L2c+JiN4YTsJCTxnIHRyYW5zZm9ybT0idHJhbnNsYXRlKDY1MS4yNiwtNDIuNTE5NykiIGlkPSJzaGFwZTIxOTAtMzQiPiYjeGE7CQkJPHRpdGxlPtCQ0YDQutGD0YguMjE5MDwvdGl0bGU+JiN4YTsJCQk8cGF0aCBjbGFzcz0ic3QyIiBkPSJNMCA4NDEuODkgTDE4NC4yNSA4NDEuODkiLz4mI3hhOwkJPC9nPiYjeGE7CQk8ZyB0cmFuc2Zvcm09InRyYW5zbGF0ZSg2NTEuMjYsLTU2LjY5MjkpIiBpZD0ic2hhcGUyMTkxLTM3Ij4mI3hhOwkJCTx0aXRsZT7QkNGA0LrRg9GILjIxOTE8L3RpdGxlPiYjeGE7CQkJPHBhdGggY2xhc3M9InN0MiIgZD0iTTAgODQxLjg5IEw1MjQuNDEgODQxLjg5Ii8+JiN4YTsJCTwvZz4mI3hhOwkJPGcgdHJhbnNmb3JtPSJ0cmFuc2xhdGUoNjUxLjI2LC03MC44NjYxKSIgaWQ9InNoYXBlMjE5Mi00MCI+JiN4YTsJCQk8dGl0bGU+0JDRgNC60YPRiC4yMTkyPC90aXRsZT4mI3hhOwkJCTxwYXRoIGNsYXNzPSJzdDIiIGQ9Ik0wIDg0MS44OSBMMTg0LjI1IDg0MS44OSIvPiYjeGE7CQk8L2c+JiN4YTsJCTxnIHRyYW5zZm9ybT0idHJhbnNsYXRlKDY1MS4yNiwtODUuMDM5NCkiIGlkPSJzaGFwZTIxOTMtNDMiPiYjeGE7CQkJPHRpdGxlPtCQ0YDQutGD0YguMjE5MzwvdGl0bGU+JiN4YTsJCQk8cGF0aCBjbGFzcz0ic3QyIiBkPSJNMCA4NDEuODkgTDE4NC4yNSA4NDEuODkiLz4mI3hhOwkJPC9nPiYjeGE7CQk8ZyB0cmFuc2Zvcm09InRyYW5zbGF0ZSg2NTEuMjYsLTk5LjIxMjYpIiBpZD0ic2hhcGUyMTk0LTQ2Ij4mI3hhOwkJCTx0aXRsZT7QkNGA0LrRg9GILjIxOTQ8L3RpdGxlPiYjeGE7CQkJPHBhdGggY2xhc3M9InN0MiIgZD0iTTAgODQxLjg5IEwxODQuMjUgODQxLjg5Ii8+JiN4YTsJCTwvZz4mI3hhOwkJPGcgdHJhbnNmb3JtPSJ0cmFuc2xhdGUoNjUxLjI2LC0xMTMuMzg2KSByb3RhdGUoMy4zNjA1MkUtMDYpIiBpZD0ic2hhcGUyMTk1LTQ5Ij4mI3hhOwkJCTx0aXRsZT7QkNGA0LrRg9GILjIxOTU8L3RpdGxlPiYjeGE7CQkJPHBhdGggY2xhc3M9InN0MiIgZD0iTTAgODQxLjg5IEwxODQuMjUgODQxLjg5Ii8+JiN4YTsJCTwvZz4mI3hhOwkJPGcgdHJhbnNmb3JtPSJ0cmFuc2xhdGUoNjUxLjI2LC0xMjcuNTU5KSIgaWQ9InNoYXBlMjE5Ni01MiI+JiN4YTsJCQk8dGl0bGU+0JDRgNC60YPRiC4yMTk2PC90aXRsZT4mI3hhOwkJCTxwYXRoIGNsYXNzPSJzdDIiIGQ9Ik0wIDg0MS44OSBMNTI0LjQxIDg0MS44OSIvPiYjeGE7CQk8L2c+JiN4YTsJCTxnIHRyYW5zZm9ybT0idHJhbnNsYXRlKDY1MS4yNiwtMTQxLjczMikiIGlkPSJzaGFwZTIxOTctNTUiPiYjeGE7CQkJPHRpdGxlPtCQ0YDQutGD0YguMjE5NzwvdGl0bGU+JiN4YTsJCQk8cGF0aCBjbGFzcz0ic3QyIiBkPSJNMCA4NDEuODkgTDE4NC4yNSA4NDEuODkiLz4mI3hhOwkJPC9nPiYjeGE7CQk8ZyB0cmFuc2Zvcm09InRyYW5zbGF0ZSg2NTEuMjYsLTE1Ni4yNikiIGlkPSJzaGFwZTIxOTgtNTgiPiYjeGE7CQkJPHRpdGxlPtCQ0YDQutGD0YguMjE5ODwvdGl0bGU+JiN4YTsJCQk8cGF0aCBjbGFzcz0ic3QyIiBkPSJNMCA4NDEuODkgTDE4NC4yNSA4NDEuODkiLz4mI3hhOwkJPC9nPiYjeGE7CQk8ZyB0cmFuc2Zvcm09InRyYW5zbGF0ZSgtMTcwLjc4Nyw3NDIuNjc3KSByb3RhdGUoLTkwKSIgaWQ9InNoYXBlMjE5OS02MSI+JiN4YTsJCQk8dGl0bGU+0JDRgNC60YPRiC4yMTk5PC90aXRsZT4mI3hhOwkJCTxwYXRoIGNsYXNzPSJzdDIiIGQ9Ik0wIDg0MS44OSBMNzAuODcgODQxLjg5Ii8+JiN4YTsJCTwvZz4mI3hhOwkJPGcgdHJhbnNmb3JtPSJ0cmFuc2xhdGUoLTE0Mi40NDEsODI3LjcxNykgcm90YXRlKC05MCkiIGlkPSJzaGFwZTIyMDAtNjQiPiYjeGE7CQkJPHRpdGxlPtCQ0YDQutGD0YguMjIwMDwvdGl0bGU+JiN4YTsJCQk8cGF0aCBjbGFzcz0ic3QyIiBkPSJNMCA4NDEuODkgTDE1NS45MSA4NDEuODkiLz4mI3hhOwkJPC9nPiYjeGE7CQk8ZyB0cmFuc2Zvcm09InRyYW5zbGF0ZSgtNzcuNzQwMSw4MjcuNzE3KSByb3RhdGUoLTkwKSIgaWQ9InNoYXBlMjIwMS02NyI+JiN4YTsJCQk8dGl0bGU+0JDRgNC60YPRiC4yMjAxPC90aXRsZT4mI3hhOwkJCTxwYXRoIGNsYXNzPSJzdDIiIGQ9Ik0wIDg0MS44OSBMMTU1LjkxIDg0MS44OSIvPiYjeGE7CQk8L2c+JiN4YTsJCTxnIHRyYW5zZm9ybT0idHJhbnNsYXRlKC0zNC43MjQ0LDgyNy43MTcpIHJvdGF0ZSgtOTApIiBpZD0ic2hhcGUyMjAyLTcwIj4mI3hhOwkJCTx0aXRsZT7QkNGA0LrRg9GILjIyMDI8L3RpdGxlPiYjeGE7CQkJPHBhdGggY2xhc3M9InN0MiIgZD0iTTAgODQxLjg5IEwxNTUuOTEgODQxLjg5Ii8+JiN4YTsJCTwvZz4mI3hhOwkJPGcgdHJhbnNmb3JtPSJ0cmFuc2xhdGUoMTkyLjA0Nyw4MjcuNzE3KSByb3RhdGUoLTkwKSIgaWQ9InNoYXBlMjIwMy03MyI+JiN4YTsJCQk8dGl0bGU+0JDRgNC60YPRiC4yMjAzPC90aXRsZT4mI3hhOwkJCTxwYXRoIGNsYXNzPSJzdDIiIGQ9Ik0wIDg0MS44OSBMMTEyLjU0IDg0MS44OSIvPiYjeGE7CQk8L2c+JiN4YTsJCTxnIHRyYW5zZm9ybT0idHJhbnNsYXRlKDEwMzMuOTQsLTExMy4zODYpIiBpZD0ic2hhcGUyMjA0LTc2Ij4mI3hhOwkJCTx0aXRsZT7QkNGA0LrRg9GILjIyMDQ8L3RpdGxlPiYjeGE7CQkJPHBhdGggY2xhc3M9InN0MiIgZD0iTTAgODQxLjg5IEwxNDEuNzMgODQxLjg5Ii8+JiN4YTsJCTwvZz4mI3hhOwkJPGcgdHJhbnNmb3JtPSJ0cmFuc2xhdGUoMTAzMy45NCwtNzAuODY2MSkiIGlkPSJzaGFwZTIyMDUtNzkiPiYjeGE7CQkJPHRpdGxlPtCQ0YDQutGD0YguMjIwNTwvdGl0bGU+JiN4YTsJCQk8cGF0aCBjbGFzcz0ic3QyIiBkPSJNMCA4NDEuODkgTDE0MS43MyA4NDEuODkiLz4mI3hhOwkJPC9nPiYjeGE7CQk8ZyB0cmFuc2Zvcm09InRyYW5zbGF0ZSgyODIuNzU2LDc3MS4wMjQpIHJvdGF0ZSgtOTApIiBpZD0ic2hhcGUyMjA2LTgyIj4mI3hhOwkJCTx0aXRsZT7QkNGA0LrRg9GILjIyMDY8L3RpdGxlPiYjeGE7CQkJPHBhdGggY2xhc3M9InN0MiIgZD0iTTAgODQxLjg5IEw1Ni42OSA4NDEuODkiLz4mI3hhOwkJPC9nPiYjeGE7CQk8ZyB0cmFuc2Zvcm09InRyYW5zbGF0ZSgyMzQuNTY3LDc3MS4wMjQpIHJvdGF0ZSgtOTApIiBpZD0ic2hhcGUyMjA3LTg1Ij4mI3hhOwkJCTx0aXRsZT7QkNGA0LrRg9GILjIyMDc8L3RpdGxlPiYjeGE7CQkJPHBhdGggY2xhc3M9InN0MiIgZD0iTTAgODQxLjg5IEw1Ni42OSA4NDEuODkiLz4mI3hhOwkJPC9nPiYjeGE7CQk8ZyB0cmFuc2Zvcm09InRyYW5zbGF0ZSgyMjAuMzk0LDc3MS4wMjQpIHJvdGF0ZSgtOTApIiBpZD0ic2hhcGUyMjA4LTg4Ij4mI3hhOwkJCTx0aXRsZT7QkNGA0LrRg9GILjIyMDg8L3RpdGxlPiYjeGE7CQkJPHBhdGggY2xhc3M9InN0MiIgZD0iTTAgODQxLjg5IEw0Mi41MiA4NDEuODkiLz4mI3hhOwkJPC9nPiYjeGE7CQk8ZyB0cmFuc2Zvcm09InRyYW5zbGF0ZSgyMDYuMjIsNzcxLjAyNCkgcm90YXRlKC05MCkiIGlkPSJzaGFwZTIyMDktOTEiPiYjeGE7CQkJPHRpdGxlPtCQ0YDQutGD0YguMjIwOTwvdGl0bGU+JiN4YTsJCQk8cGF0aCBjbGFzcz0ic3QyIiBkPSJNMCA4NDEuODkgTDQyLjUyIDg0MS44OSIvPiYjeGE7CQk8L2c+JiN4YTsJCTxnIHRyYW5zZm9ybT0idHJhbnNsYXRlKDI0OC43NCw3ODUuMTk3KSByb3RhdGUoLTkwKSIgaWQ9InNoYXBlMjIxMC05NCI+JiN4YTsJCQk8dGl0bGU+0JDRgNC60YPRiC4yMjEwPC90aXRsZT4mI3hhOwkJCTxwYXRoIGNsYXNzPSJzdDIiIGQ9Ik0wIDg0MS44OSBMMTQuMTcgODQxLjg5Ii8+JiN4YTsJCTwvZz4mI3hhOwkJPGcgdHJhbnNmb3JtPSJ0cmFuc2xhdGUoMTEyNS4wNywtMTE0LjkzMikiIGlkPSJzaGFwZTIzNDctOTciPiYjeGE7CQkJPHRpdGxlPtCR0LvQvtC6INGC0LXQutGB0YLRgy4yMzQ3PC90aXRsZT4mI3hhOwkJCTxkZXNjPtCc0LDRgdGI0YLQsNCxPC9kZXNjPiYjeGE7CQkJJiN4YTsJCQkJJiN4YTsJCQkJJiN4YTsJCQkJJiN4YTsJCQkJJiN4YTsJCQkJJiN4YTsJCQkJJiN4YTsJCQkmI3hhOwkJCSYjeGE7CQkJJiN4YTsJCQk8cmVjdCBjbGFzcz0ic3Q0IiBoZWlnaHQ9IjExLjA4MDkiIHdpZHRoPSI1Mi4wMTU3IiB5PSI4MzAuODA5IiB4PSIwIi8+JiN4YTsJCQk8dGV4dCBjbGFzcz0ic3Q1IiB5PSI4MzkuNSIgeD0iNS44OCI+0JzQsNGB0YjRgtCw0LE8L3RleHQ+CQk8L2c+JiN4YTsJCTxnIHRyYW5zZm9ybT0idHJhbnNsYXRlKDY0Ny42NjIsLTEwMC42MykiIGlkPSJzaGFwZTIzNDgtMTAwIj4mI3hhOwkJCTx0aXRsZT7QkdC70L7QuiDRgtC10LrRgdGC0YMuMjM0ODwvdGl0bGU+JiN4YTsJCQk8ZGVzYz7Ql9C8PC9kZXNjPiYjeGE7CQkJJiN4YTsJCQkJJiN4YTsJCQkJJiN4YTsJCQkJJiN4YTsJCQkJJiN4YTsJCQkJJiN4YTsJCQkJJiN4YTsJCQkmI3hhOwkJCSYjeGE7CQkJJiN4YTsJCQk8cmVjdCBjbGFzcz0ic3Q0IiBoZWlnaHQ9IjExLjA4MDkiIHdpZHRoPSIyMi4wMjMiIHk9IjgzMC44MDkiIHg9IjAiLz4mI3hhOwkJCTx0ZXh0IGNsYXNzPSJzdDUiIHk9IjgzOS41IiB4PSI1LjYzIj7Ql9C8PC90ZXh0PgkJPC9nPiYjeGE7CQk8ZyB0cmFuc2Zvcm09InRyYW5zbGF0ZSg2NzMuOTM3LC0xMDAuNjMpIiBpZD0ic2hhcGUyMzQ5LTEwMyI+JiN4YTsJCQk8dGl0bGU+0JHQu9C+0Log0YLQtdC60YHRgtGDLjIzNDk8L3RpdGxlPiYjeGE7CQkJPGRlc2M+0JDRgNC6PC9kZXNjPiYjeGE7CQkJJiN4YTsJCQkJJiN4YTsJCQkJJiN4YTsJCQkJJiN4YTsJCQkJJiN4YTsJCQkJJiN4YTsJCQkJJiN4YTsJCQkmI3hhOwkJCSYjeGE7CQkJJiN4YTsJCQk8cmVjdCBjbGFzcz0ic3Q0IiBoZWlnaHQ9IjExLjA4MDkiIHdpZHRoPSIyOS4wOTA1IiB5PSI4MzAuODA5IiB4PSIwIi8+JiN4YTsJCQk8dGV4dCBjbGFzcz0ic3Q1IiB5PSI4MzkuNSIgeD0iNy4yMiI+0JDRgNC6PC90ZXh0PgkJPC9nPiYjeGE7CQk8ZyB0cmFuc2Zvcm09InRyYW5zbGF0ZSg2OTguMDMxLC0xMDAuNjMpIiBpZD0ic2hhcGUyMzUwLTEwNiI+JiN4YTsJCQk8dGl0bGU+0JHQu9C+0Log0YLQtdC60YHRgtGDLjIzNTA8L3RpdGxlPiYjeGE7CQkJPGRlc2M+TiDQtNC+0LrRg9C80LXQvdGC0LA8L2Rlc2M+JiN4YTsJCQkmI3hhOwkJCQkmI3hhOwkJCQkmI3hhOwkJCQkmI3hhOwkJCQkmI3hhOwkJCQkmI3hhOwkJCQkmI3hhOwkJCSYjeGE7CQkJJiN4YTsJCQkmI3hhOwkJCTxyZWN0IGNsYXNzPSJzdDQiIGhlaWdodD0iMTEuMDgwOSIgd2lkdGg9IjYzLjc3OTUiIHk9IjgzMC44MDkiIHg9IjAiLz4mI3hhOwkJCTx0ZXh0IGNsYXNzPSJzdDUiIHk9IjgzOS41IiB4PSI0Ljk1Ij5OPHRzcGFuIGNsYXNzPSJzdDYiPiA8L3RzcGFuPjx0c3BhbiBjbGFzcz0ic3Q2Ij7QtNC+0LrRg9C80LXQvdGC0LA8L3RzcGFuPjwvdGV4dD4JCTwvZz4mI3hhOwkJPGcgdHJhbnNmb3JtPSJ0cmFuc2xhdGUoNzYzLjIyOCwtMTAwLjYzKSIgaWQ9InNoYXBlMjM1MS0xMTEiPiYjeGE7CQkJPHRpdGxlPtCR0LvQvtC6INGC0LXQutGB0YLRgy4yMzUxPC90aXRsZT4mI3hhOwkJCTxkZXNjPtCf0ZbQtNC/0LjRgTwvZGVzYz4mI3hhOwkJCSYjeGE7CQkJCSYjeGE7CQkJCSYjeGE7CQkJCSYjeGE7CQkJCSYjeGE7CQkJCSYjeGE7CQkJCSYjeGE7CQkJJiN4YTsJCQkmI3hhOwkJCSYjeGE7CQkJPHJlY3QgY2xhc3M9InN0NCIgaGVpZ2h0PSIxMS4wODA5IiB3aWR0aD0iMzcuMjIyNCIgeT0iODMwLjgwOSIgeD0iMCIvPiYjeGE7CQkJPHRleHQgY2xhc3M9InN0NSIgeT0iODM5LjUiIHg9IjUuNjMiPtCf0ZbQtNC/0LjRgTwvdGV4dD4JCTwvZz4mI3hhOwkJPGcgdHJhbnNmb3JtPSJ0cmFuc2xhdGUoODA1Ljc0OCwtMTAwLjYzKSIgaWQ9InNoYXBlMjM1Mi0xMTQiPiYjeGE7CQkJPHRpdGxlPtCR0LvQvtC6INGC0LXQutGB0YLRgy4yMzUyPC90aXRsZT4mI3hhOwkJCTxkZXNjPtCU0LDRgtCwPC9kZXNjPiYjeGE7CQkJJiN4YTsJCQkJJiN4YTsJCQkJJiN4YTsJCQkJJiN4YTsJCQkJJiN4YTsJCQkJJiN4YTsJCQkJJiN4YTsJCQkmI3hhOwkJCSYjeGE7CQkJJiN4YTsJCQk8cmVjdCBjbGFzcz0ic3Q0IiBoZWlnaHQ9IjExLjA4MDkiIHdpZHRoPSIzMi45NzA0IiB5PSI4MzAuODA5IiB4PSIwIi8+JiN4YTsJCQk8dGV4dCBjbGFzcz0ic3Q1IiB5PSI4MzkuNSIgeD0iNS4wOSI+0JTQsNGC0LA8L3RleHQ+CQk8L2c+JiN4YTsJCTxnIHRyYW5zZm9ybT0idHJhbnNsYXRlKDY0OC45OTIsLTg2LjQ1NjcpIiBpZD0ic2hhcGUyMzUzLTExNyI+JiN4YTsJCQk8dGl0bGU+0JHQu9C+0Log0YLQtdC60YHRgtGDLjIzNTM8L3RpdGxlPiYjeGE7CQkJPGRlc2M+0KDQvtC30YDQvtCx0LjQsjwvZGVzYz4mI3hhOwkJCSYjeGE7CQkJCSYjeGE7CQkJCSYjeGE7CQkJCSYjeGE7CQkJCSYjeGE7CQkJCSYjeGE7CQkJCSYjeGE7CQkJJiN4YTsJCQkmI3hhOwkJCSYjeGE7CQkJPHJlY3QgY2xhc3M9InN0NCIgaGVpZ2h0PSIxMS4wODA5IiB3aWR0aD0iNDcuMDU1MSIgeT0iODMwLjgwOSIgeD0iMCIvPiYjeGE7CQkJPHRleHQgY2xhc3M9InN0NSIgeT0iODM5LjUiIHg9IjUuMSI+0KDQvtC30YDQvtCx0LjQsjwvdGV4dD4JCTwvZz4mI3hhOwkJPGcgdHJhbnNmb3JtPSJ0cmFuc2xhdGUoNjQ2LjcyNCwtNzIuMjgzNSkiIGlkPSJzaGFwZTIzNTQtMTIwIj4mI3hhOwkJCTx0aXRsZT7QkdC70L7QuiDRgtC10LrRgdGC0YMuMjM1NDwvdGl0bGU+JiN4YTsJCQk8ZGVzYz7Qn9C10YDQtdCy0ZbRgNC40LI8L2Rlc2M+JiN4YTsJCQkmI3hhOwkJCQkmI3hhOwkJCQkmI3hhOwkJCQkmI3hhOwkJCQkmI3hhOwkJCQkmI3hhOwkJCQkmI3hhOwkJCSYjeGE7CQkJJiN4YTsJCQkmI3hhOwkJCTxyZWN0IGNsYXNzPSJzdDQiIGhlaWdodD0iMTEuMDgwOSIgd2lkdGg9IjUxLjMwNzEiIHk9IjgzMC44MDkiIHg9IjAiLz4mI3hhOwkJCTx0ZXh0IGNsYXNzPSJzdDUiIHk9IjgzOS41IiB4PSI1LjcyIj7Qn9C10YDQtdCy0ZbRgNC40LI8L3RleHQ+CQk8L2c+JiN4YTsJCTxnIHRyYW5zZm9ybT0idHJhbnNsYXRlKDY0OC4xNDIsLTU4LjExMDIpIiBpZD0ic2hhcGUyMzU1LTEyMyI+JiN4YTsJCQk8dGl0bGU+0JHQu9C+0Log0YLQtdC60YHRgtGDLjIzNTU8L3RpdGxlPiYjeGE7CQkJPGRlc2M+0KIuINC60L7QvdGC0YAuPC9kZXNjPiYjeGE7CQkJJiN4YTsJCQkJJiN4YTsJCQkJJiN4YTsJCQkJJiN4YTsJCQkJJiN4YTsJCQkJJiN4YTsJCQkJJiN4YTsJCQkmI3hhOwkJCSYjeGE7CQkJJiN4YTsJCQk8cmVjdCBjbGFzcz0ic3Q0IiBoZWlnaHQ9IjExLjA4MDkiIHdpZHRoPSI0Ny4wNTUxIiB5PSI4MzAuODA5IiB4PSIwIi8+JiN4YTsJCQk8dGV4dCBjbGFzcz0ic3Q1IiB5PSI4MzkuNSIgeD0iNC44NiI+0KIuINC60L7QvdGC0YAuPC90ZXh0PgkJPC9nPiYjeGE7CQk8ZyB0cmFuc2Zvcm09InRyYW5zbGF0ZSg2NDkuMjc2LC0yOS44OTI2KSIgaWQ9InNoYXBlMjM1Ni0xMjYiPiYjeGE7CQkJPHRpdGxlPtCR0LvQvtC6INGC0LXQutGB0YLRgy4yMzU2PC90aXRsZT4mI3hhOwkJCTxkZXNjPtCdLiDQutC+0L3RgtGALjwvZGVzYz4mI3hhOwkJCSYjeGE7CQkJCSYjeGE7CQkJCSYjeGE7CQkJCSYjeGE7CQkJCSYjeGE7CQkJCSYjeGE7CQkJCSYjeGE7CQkJJiN4YTsJCQkmI3hhOwkJCSYjeGE7CQkJPHJlY3QgY2xhc3M9InN0NCIgaGVpZ2h0PSIxMS4wODA5IiB3aWR0aD0iNDcuMDU1MSIgeT0iODMwLjgwOSIgeD0iMCIvPiYjeGE7CQkJPHRleHQgY2xhc3M9InN0NSIgeT0iODM5LjUiIHg9IjQuMjQiPtCdLiDQutC+0L3RgtGALjwvdGV4dD4JCTwvZz4mI3hhOwkJPGcgdHJhbnNmb3JtPSJ0cmFuc2xhdGUoNjQ3LjQzMywtMTUuODQ4MykiIGlkPSJzaGFwZTIzNTctMTI5Ij4mI3hhOwkJCTx0aXRsZT7QkdC70L7QuiDRgtC10LrRgdGC0YMuMjM1NzwvdGl0bGU+JiN4YTsJCQk8ZGVzYz7Ql9Cw0YLQstC10YDQtNC40LI8L2Rlc2M+JiN4YTsJCQkmI3hhOwkJCQkmI3hhOwkJCQkmI3hhOwkJCQkmI3hhOwkJCQkmI3hhOwkJCQkmI3hhOwkJCQkmI3hhOwkJCSYjeGE7CQkJJiN4YTsJCQkmI3hhOwkJCTxyZWN0IGNsYXNzPSJzdDQiIGhlaWdodD0iMTEuMDgwOSIgd2lkdGg9IjU1Ljg0MjUiIHk9IjgzMC44MDkiIHg9IjAiLz4mI3hhOwkJCTx0ZXh0IGNsYXNzPSJzdDUiIHk9IjgzOS41IiB4PSI1Ljk0Ij7Ql9Cw0YLQstC10YDQtNC40LI8L3RleHQ+CQk8L2c+JiN4YTsJCTxnIHRyYW5zZm9ybT0idHJhbnNsYXRlKDEwODMuNTQsLTExNS4yODYpIiBpZD0ic2hhcGUyMzU4LTEzMiI+JiN4YTsJCQk8dGl0bGU+0JHQu9C+0Log0YLQtdC60YHRgtGDLjIzNTg8L3RpdGxlPiYjeGE7CQkJPGRlc2M+0JzQsNGB0LA8L2Rlc2M+JiN4YTsJCQkmI3hhOwkJCQkmI3hhOwkJCQkmI3hhOwkJCQkmI3hhOwkJCQkmI3hhOwkJCQkmI3hhOwkJCQkmI3hhOwkJCSYjeGE7CQkJJiN4YTsJCQkmI3hhOwkJCTxyZWN0IGNsYXNzPSJzdDQiIGhlaWdodD0iMTEuMDgwOSIgd2lkdGg9IjMyLjE3MzIiIHk9IjgzMC44MDkiIHg9IjAiLz4mI3hhOwkJCTx0ZXh0IGNsYXNzPSJzdDUiIHk9IjgzOS41IiB4PSI1LjU1Ij7QnNCw0YHQsDwvdGV4dD4JCTwvZz4mI3hhOwkJPGcgdHJhbnNmb3JtPSJ0cmFuc2xhdGUoMTAzOS4xMSwtMTE1LjA2MSkiIGlkPSJzaGFwZTIzNTktMTM1Ij4mI3hhOwkJCTx0aXRsZT7QkdC70L7QuiDRgtC10LrRgdGC0YMuMjM1OTwvdGl0bGU+JiN4YTsJCQk8ZGVzYz7Qm9GW0YI8L2Rlc2M+JiN4YTsJCQkmI3hhOwkJCQkmI3hhOwkJCQkmI3hhOwkJCQkmI3hhOwkJCQkmI3hhOwkJCQkmI3hhOwkJCQkmI3hhOwkJCSYjeGE7CQkJJiN4YTsJCQkmI3hhOwkJCTxyZWN0IGNsYXNzPSJzdDQiIGhlaWdodD0iMTEuMDgwOSIgd2lkdGg9IjMyLjE3MzIiIHk9IjgzMC44MDkiIHg9IjAiLz4mI3hhOwkJCTx0ZXh0IGNsYXNzPSJzdDUiIHk9IjgzOS41IiB4PSI4LjUzIj7Qm9GW0YI8L3RleHQ+CQk8L2c+JiN4YTsJCTxnIHRyYW5zZm9ybT0idHJhbnNsYXRlKDEwMzEuMSwtNTguMTEwMikiIGlkPSJzaGFwZTIzNjAtMTM4Ij4mI3hhOwkJCTx0aXRsZT7QkdC70L7QuiDRgtC10LrRgdGC0YMuMjM2MDwvdGl0bGU+JiN4YTsJCQk8ZGVzYz7QkNGA0LrRg9GIPC9kZXNjPiYjeGE7CQkJJiN4YTsJCQkJJiN4YTsJCQkJJiN4YTsJCQkJJiN4YTsJCQkJJiN4YTsJCQkJJiN4YTsJCQkJJiN4YTsJCQkmI3hhOwkJCSYjeGE7CQkJJiN4YTsJCQk8cmVjdCBjbGFzcz0ic3Q0IiBoZWlnaHQ9IjExLjA4MDkiIHdpZHRoPSIzOC41NTEyIiB5PSI4MzAuODA5IiB4PSIwIi8+JiN4YTsJCQk8dGV4dCBjbGFzcz0ic3Q1IiB5PSI4MzkuNSIgeD0iNi4yNSI+0JDRgNC60YPRiDwvdGV4dD4JCTwvZz4mI3hhOwkJPGcgdHJhbnNmb3JtPSJ0cmFuc2xhdGUoMTA4Ni4wOSwtNTguMjM5MSkiIGlkPSJzaGFwZTIzNjEtMTQxIj4mI3hhOwkJCTx0aXRsZT7QkdC70L7QuiDRgtC10LrRgdGC0YMuMjM2MTwvdGl0bGU+JiN4YTsJCQk8ZGVzYz7QkNGA0LrRg9GI0ZbQsjwvZGVzYz4mI3hhOwkJCSYjeGE7CQkJCSYjeGE7CQkJCSYjeGE7CQkJCSYjeGE7CQkJCSYjeGE7CQkJCSYjeGE7CQkJCSYjeGE7CQkJJiN4YTsJCQkmI3hhOwkJCSYjeGE7CQkJPHJlY3QgY2xhc3M9InN0NCIgaGVpZ2h0PSIxMS4wODA5IiB3aWR0aD0iNDcuMzM4NiIgeT0iODMwLjgwOSIgeD0iMCIvPiYjeGE7CQkJPHRleHQgY2xhc3M9InN0NSIgeT0iODM5LjUiIHg9IjcuMzEiPtCQ0YDQutGD0YjRltCyPC90ZXh0PgkJPC9nPiYjeGE7CQk8ZyB0cmFuc2Zvcm09InRyYW5zbGF0ZSgtMTkwLjYzLDgyNy43MTcpIHJvdGF0ZSgtOTApIiBpZD0ic2hhcGUyMzY3LTE0NCI+JiN4YTsJCQk8dGl0bGU+0JDRgNC60YPRiC4yMzY3PC90aXRsZT4mI3hhOwkJCTxwYXRoIGNsYXNzPSJzdDIiIGQ9Ik0wIDg0MS44OSBMMTU1LjkxIDg0MS44OSIvPiYjeGE7CQk8L2c+JiN4YTsJCTxnIHRyYW5zZm9ybT0idHJhbnNsYXRlKDg2NC4yODMsMTQuMTczMikgcm90YXRlKDkwKSIgaWQ9InNoYXBlNTI0My0xNDciPiYjeGE7CQkJPHRpdGxlPtCQ0YDQutGD0YguNTI0MzwvdGl0bGU+JiN4YTsJCQk8cGF0aCBjbGFzcz0ic3QyIiBkPSJNMCA4NDEuODkgTDMzOS45NCA4NDEuODkiLz4mI3hhOwkJPC9nPiYjeGE7CQk8ZyB0cmFuc2Zvcm09InRyYW5zbGF0ZSgzNiwtMTQuMTU5Nykgcm90YXRlKC0wLjAzODU4MykiIGlkPSJzaGFwZTUyNDQtMTUwIj4mI3hhOwkJCTx0aXRsZT7QkNGA0LrRg9GILjUyNDQ8L3RpdGxlPiYjeGE7CQkJPHBhdGggY2xhc3M9InN0MiIgZD0iTTAgODQxLjg5IEwxOS44NCA4NDEuODkiLz4mI3hhOwkJPC9nPiYjeGE7CQk8ZyB0cmFuc2Zvcm09InRyYW5zbGF0ZSgyMS44MjY4LC0xNC4xNTAxKSByb3RhdGUoLTAuMDM4NTgzKSIgaWQ9InNoYXBlNTI0NS0xNTMiPiYjeGE7CQkJPHRpdGxlPtCQ0YDQutGD0YguNTI0NTwvdGl0bGU+JiN4YTsJCQk8cGF0aCBjbGFzcz0ic3QyIiBkPSJNMCA4NDEuODkgTDE0LjE3IDg0MS44OSIvPiYjeGE7CQk8L2c+JiN4YTsJCTxnIHRyYW5zZm9ybT0idHJhbnNsYXRlKDg3OC40NTcsNDE2LjY5Mykgcm90YXRlKDkwKSIgaWQ9InNoYXBlNTI0Ni0xNTYiPiYjeGE7CQkJPHRpdGxlPtCQ0YDQutGD0YguNTI0NjwvdGl0bGU+JiN4YTsJCQk8cGF0aCBjbGFzcz0ic3QyIiBkPSJNMCA4NDEuODkgTDQxMS4wNCA4NDEuODkiLz4mI3hhOwkJPC9nPiYjeGE7CQk8ZyB0cmFuc2Zvcm09InRyYW5zbGF0ZSg4NjQuMjgzLDQxNi42OTMpIHJvdGF0ZSg5MCkiIGlkPSJzaGFwZTUyNDctMTU5Ij4mI3hhOwkJCTx0aXRsZT7QkNGA0LrRg9GILjUyNDc8L3RpdGxlPiYjeGE7CQkJPHBhdGggY2xhc3M9InN0MiIgZD0iTTAgODQxLjg5IEw0MTEuMDUgODQxLjg5Ii8+JiN4YTsJCTwvZz4mI3hhOwkJPGcgdHJhbnNmb3JtPSJ0cmFuc2xhdGUoMjIuMzkzNywxNjA5LjM1KSBzY2FsZSgxLC0xKSIgaWQ9InNoYXBlNTI0OC0xNjIiPiYjeGE7CQkJPHRpdGxlPtCQ0YDQutGD0YguNTI0ODwvdGl0bGU+JiN4YTsJCQk8cGF0aCBjbGFzcz0ic3QyIiBkPSJNMCA4NDEuODkgTDM0LjAyIDg0MS44OSIvPiYjeGE7CQk8L2c+JiN4YTsJCTxnIHRyYW5zZm9ybT0idHJhbnNsYXRlKDIyLjM5MzcsMTUxMC4xNCkgc2NhbGUoMSwtMSkiIGlkPSJzaGFwZTUyNDktMTY1Ij4mI3hhOwkJCTx0aXRsZT7QkNGA0LrRg9GILjUyNDk8L3RpdGxlPiYjeGE7CQkJPHBhdGggY2xhc3M9InN0MiIgZD0iTTAgODQxLjg5IEwzNC4wMiA4NDEuODkiLz4mI3hhOwkJPC9nPiYjeGE7CQk8ZyB0cmFuc2Zvcm09InRyYW5zbGF0ZSgyMi4zOTM3LDE0MzkuMjcpIHNjYWxlKDEsLTEpIiBpZD0ic2hhcGU1MjUwLTE2OCI+JiN4YTsJCQk8dGl0bGU+0JDRgNC60YPRiC41MjUwPC90aXRsZT4mI3hhOwkJCTxwYXRoIGNsYXNzPSJzdDIiIGQ9Ik0wIDg0MS44OSBMMzQuMDIgODQxLjg5Ii8+JiN4YTsJCTwvZz4mI3hhOwkJPGcgdHJhbnNmb3JtPSJ0cmFuc2xhdGUoMjIuMzkzNywxMzY4LjQxKSBzY2FsZSgxLC0xKSIgaWQ9InNoYXBlNTI1MS0xNzEiPiYjeGE7CQkJPHRpdGxlPtCQ0YDQutGD0YguNTI1MTwvdGl0bGU+JiN4YTsJCQk8cGF0aCBjbGFzcz0ic3QyIiBkPSJNMCA4NDEuODkgTDM0LjAyIDg0MS44OSIvPiYjeGE7CQk8L2c+JiN4YTsJCTxnIHRyYW5zZm9ybT0idHJhbnNsYXRlKDIyLjM5MzcsMTI1OC41OCkgc2NhbGUoMSwtMSkiIGlkPSJzaGFwZTUyNTItMTc0Ij4mI3hhOwkJCTx0aXRsZT7QkNGA0LrRg9GILjUyNTI8L3RpdGxlPiYjeGE7CQkJPHBhdGggY2xhc3M9InN0MiIgZD0iTTAgODQxLjg5IEwzNC4wMiA4NDEuODkiLz4mI3hhOwkJPC9nPiYjeGE7CQk8ZyB0cmFuc2Zvcm09InRyYW5zbGF0ZSg4NzguNDU3LDE0LjE3MzIpIHJvdGF0ZSg5MCkiIGlkPSJzaGFwZTUyNTMtMTc3Ij4mI3hhOwkJCTx0aXRsZT7QkNGA0LrRg9GILjUyNTM8L3RpdGxlPiYjeGE7CQkJPHBhdGggY2xhc3M9InN0MiIgZD0iTTAgODQxLjg5IEwzMzkuOTQgODQxLjg5Ii8+JiN4YTsJCTwvZz4mI3hhOwkJPGcgdHJhbnNmb3JtPSJ0cmFuc2xhdGUoNTYuNDA5NCwxMDI2LjE0KSByb3RhdGUoMTgwKSIgaWQ9InNoYXBlNTI1NC0xODAiPiYjeGE7CQkJPHRpdGxlPtCQ0YDQutGD0YguNTI1NDwvdGl0bGU+JiN4YTsJCQk8cGF0aCBjbGFzcz0ic3QyIiBkPSJNMCA4NDEuODkgTDM0LjAyIDg0MS44OSIvPiYjeGE7CQk8L2c+JiN4YTsJCTxnIHRyYW5zZm9ybT0idHJhbnNsYXRlKDU2LjQwOTQsMTE5Nikgcm90YXRlKDE4MCkiIGlkPSJzaGFwZTUyNTUtMTgzIj4mI3hhOwkJCTx0aXRsZT7QkNGA0LrRg9GILjUyNTU8L3RpdGxlPiYjeGE7CQkJPHBhdGggY2xhc3M9InN0MiIgZD0iTTAgODQxLjg5IEwzNC4wMiA4NDEuODkiLz4mI3hhOwkJPC9nPiYjeGE7CQk8ZyB0cmFuc2Zvcm09InRyYW5zbGF0ZSg1Ni40MDk0LC03ODguMDMyKSIgaWQ9InNoYXBlNTI1Ni0xODYiPiYjeGE7CQkJPHRpdGxlPtCQ0YDQutGD0YguNTI1NjwvdGl0bGU+JiN4YTsJCQk8cGF0aCBjbGFzcz0ic3QyIiBkPSJNMCA4NDEuODkgTDE5OC40MyA4NDEuODkiLz4mI3hhOwkJPC9nPiYjeGE7CQk8ZyB0cmFuc2Zvcm09InRyYW5zbGF0ZSgxMDk2LjcyLDE0LjE3MzIpIHJvdGF0ZSg5MCkiIGlkPSJzaGFwZTUyNTktMTg5Ij4mI3hhOwkJCTx0aXRsZT7QkNGA0LrRg9GILjUyNTk8L3RpdGxlPiYjeGE7CQkJPHBhdGggY2xhc3M9InN0MiIgZD0iTTAgODQxLjg5IEwzOS42OSA4NDEuODkiLz4mI3hhOwkJPC9nPiYjeGE7CQk8ZyB0cmFuc2Zvcm09InRyYW5zbGF0ZSgtODA3LjAyNCw4MjMuODkpIHJvdGF0ZSgtOTApIiBpZD0ic2hhcGU1MjYwLTE5MiI+JiN4YTsJCQk8dGl0bGU+0JHQu9C+0Log0YLQtdC60YHRgtGDLjUyNjA8L3RpdGxlPiYjeGE7CQkJPGRlc2M+0IbQvdCyLiDihJYg0L7RgC48L2Rlc2M+JiN4YTsJCQkmI3hhOwkJCQkmI3hhOwkJCQkmI3hhOwkJCQkmI3hhOwkJCQkmI3hhOwkJCQkmI3hhOwkJCQkmI3hhOwkJCSYjeGE7CQkJJiN4YTsJCQkmI3hhOwkJCTxyZWN0IGNsYXNzPSJzdDQiIGhlaWdodD0iMTEuMDgwOSIgd2lkdGg9IjY0Ljc3MTciIHk9IjgzMC44MDkiIHg9IjAiLz4mI3hhOwkJCTx0ZXh0IGNsYXNzPSJzdDUiIHk9IjgzOS41IiB4PSIxMi42NSI+0IbQvdCyLiDihJYg0L7RgC48L3RleHQ+CQk8L2c+JiN4YTsJCTxnIHRyYW5zZm9ybT0idHJhbnNsYXRlKC04MDcuMDI0LDc1Ni4xNDgpIHJvdGF0ZSgtOTApIiBpZD0ic2hhcGU1MjYxLTE5NSI+JiN4YTsJCQk8dGl0bGU+0JHQu9C+0Log0YLQtdC60YHRgtGDLjUyNjE8L3RpdGxlPiYjeGE7CQkJPGRlc2M+0J/RltC00L/QuNGBINGWINC00LDRgtCwPC9kZXNjPiYjeGE7CQkJJiN4YTsJCQkJJiN4YTsJCQkJJiN4YTsJCQkJJiN4YTsJCQkJJiN4YTsJCQkJJiN4YTsJCQkJJiN4YTsJCQkmI3hhOwkJCSYjeGE7CQkJJiN4YTsJCQk8cmVjdCBjbGFzcz0ic3Q0IiBoZWlnaHQ9IjExLjA4MDkiIHdpZHRoPSI2NC43NzE3IiB5PSI4MzAuODA5IiB4PSIwIi8+JiN4YTsJCQk8dGV4dCBjbGFzcz0ic3Q1IiB5PSI4MzkuNSIgeD0iNS40OSI+0J/RltC00L/QuNGBINGWINC00LDRgtCwPC90ZXh0PgkJPC9nPiYjeGE7CQk8ZyB0cmFuc2Zvcm09InRyYW5zbGF0ZSgtODA3LjAyNCw2NjUuMjAzKSByb3RhdGUoLTkwKSIgaWQ9InNoYXBlNTI2Mi0xOTgiPiYjeGE7CQkJPHRpdGxlPtCR0LvQvtC6INGC0LXQutGB0YLRgy41MjYyPC90aXRsZT4mI3hhOwkJCTxkZXNjPtCX0LDQvC4g0IbQvdCyLiDihJY8L2Rlc2M+JiN4YTsJCQkmI3hhOwkJCQkmI3hhOwkJCQkmI3hhOwkJCQkmI3hhOwkJCQkmI3hhOwkJCQkmI3hhOwkJCQkmI3hhOwkJCSYjeGE7CQkJJiN4YTsJCQkmI3hhOwkJCTxyZWN0IGNsYXNzPSJzdDQiIGhlaWdodD0iMTEuMDgwOSIgd2lkdGg9IjY0Ljc3MTciIHk9IjgzMC44MDkiIHg9IjAiLz4mI3hhOwkJCTx0ZXh0IGNsYXNzPSJzdDUiIHk9IjgzOS41IiB4PSI5LjY1Ij7Ql9Cw0LwuINCG0L3Qsi4g4oSWPC90ZXh0PgkJPC9nPiYjeGE7CQk8ZyB0cmFuc2Zvcm09InRyYW5zbGF0ZSgtODA3LjAyNCw1OTQuMzM3KSByb3RhdGUoLTkwKSIgaWQ9InNoYXBlNTI2My0yMDEiPiYjeGE7CQkJPHRpdGxlPtCR0LvQvtC6INGC0LXQutGB0YLRgy41MjYzPC90aXRsZT4mI3hhOwkJCTxkZXNjPtCG0L3QsiDihJYg0LTRg9Cx0LsuPC9kZXNjPiYjeGE7CQkJJiN4YTsJCQkJJiN4YTsJCQkJJiN4YTsJCQkJJiN4YTsJCQkJJiN4YTsJCQkJJiN4YTsJCQkJJiN4YTsJCQkmI3hhOwkJCSYjeGE7CQkJJiN4YTsJCQk8cmVjdCBjbGFzcz0ic3Q0IiBoZWlnaHQ9IjExLjA4MDkiIHdpZHRoPSI2NC43NzE3IiB5PSI4MzAuODA5IiB4PSIwIi8+JiN4YTsJCQk8dGV4dCBjbGFzcz0ic3Q1IiB5PSI4MzkuNSIgeD0iOS4zMiI+0IbQvdCyIOKEliDQtNGD0LHQuy48L3RleHQ+CQk8L2c+JiN4YTsJCTxnIHRyYW5zZm9ybT0idHJhbnNsYXRlKC04MDcuMDI0LDUwOC44MTkpIHJvdGF0ZSgtOTApIiBpZD0ic2hhcGU1MjY0LTIwNCI+JiN4YTsJCQk8dGl0bGU+0JHQu9C+0Log0YLQtdC60YHRgtGDLjUyNjQ8L3RpdGxlPiYjeGE7CQkJPGRlc2M+0J/RltC00L/QuNGBINGWINC00LDRgtCwPC9kZXNjPiYjeGE7CQkJJiN4YTsJCQkJJiN4YTsJCQkJJiN4YTsJCQkJJiN4YTsJCQkJJiN4YTsJCQkJJiN4YTsJCQkJJiN4YTsJCQkmI3hhOwkJCSYjeGE7CQkJJiN4YTsJCQk8cmVjdCBjbGFzcz0ic3Q0IiBoZWlnaHQ9IjExLjA4MDkiIHdpZHRoPSI2NC43NzE3IiB5PSI4MzAuODA5IiB4PSIwIi8+JiN4YTsJCQk8dGV4dCBjbGFzcz0ic3Q1IiB5PSI4MzkuNSIgeD0iNS40OSI+0J/RltC00L/QuNGBINGWINC00LDRgtCwPC90ZXh0PgkJPC9nPiYjeGE7CQk8ZyB0cmFuc2Zvcm09InRyYW5zbGF0ZSgtODA3LjAyNCwxNTYuNTA4KSByb3RhdGUoLTkwKSIgaWQ9InNoYXBlNTI2NS0yMDciPiYjeGE7CQkJPHRpdGxlPtCR0LvQvtC6INGC0LXQutGB0YLRgy41MjY1PC90aXRsZT4mI3hhOwkJCTxkZXNjPtCf0LXRgNCy0LjQvdC90LjQuSDQv9GA0LjQutC70LDQtDwvZGVzYz4mI3hhOwkJCSYjeGE7CQkJCSYjeGE7CQkJCSYjeGE7CQkJCSYjeGE7CQkJCSYjeGE7CQkJCSYjeGE7CQkJCSYjeGE7CQkJJiN4YTsJCQkmI3hhOwkJCSYjeGE7CQkJPHJlY3QgY2xhc3M9InN0NCIgaGVpZ2h0PSIxMS4wODA5IiB3aWR0aD0iMTAzLjI1MiIgeT0iODMwLjgwOSIgeD0iMCIvPiYjeGE7CQkJPHRleHQgY2xhc3M9InN0NSIgeT0iODM5LjUiIHg9IjEyLjQ1Ij7Qn9C10YDQstC40L3QvdC40Lkg0L/RgNC40LrQu9Cw0LQ8L3RleHQ+CQk8L2c+JiN4YTsJCTxnIHRyYW5zZm9ybT0idHJhbnNsYXRlKC04MDcuNDEyLDI5Ni4yMikgcm90YXRlKC05MCkiIGlkPSJzaGFwZTUyNjYtMjEwIj4mI3hhOwkJCTx0aXRsZT7QkdC70L7QuiDRgtC10LrRgdGC0YMuNTI2NjwvdGl0bGU+JiN4YTsJCQk8ZGVzYz7QodC/0YAuIOKEljwvZGVzYz4mI3hhOwkJCSYjeGE7CQkJCSYjeGE7CQkJCSYjeGE7CQkJCSYjeGE7CQkJCSYjeGE7CQkJCSYjeGE7CQkJCSYjeGE7CQkJJiN4YTsJCQkmI3hhOwkJCSYjeGE7CQkJPHJlY3QgY2xhc3M9InN0NCIgaGVpZ2h0PSIxMS4wODA5IiB3aWR0aD0iNjQuNzcxNyIgeT0iODMwLjgwOSIgeD0iMCIvPiYjeGE7CQkJPHRleHQgY2xhc3M9InN0NSIgeT0iODM5LjUiIHg9IjE4LjM3Ij7QodC/0YAuIOKEljwvdGV4dD4JCTwvZz4mI3hhOwkJPGcgdHJhbnNmb3JtPSJ0cmFuc2xhdGUoNjUxLjY4NSwtMTQuMTczMikiIGlkPSJzaGFwZTUzOTUtMjEzIj4mI3hhOwkJCTx0aXRsZT7QkNGA0LrRg9GILjUzOTU8L3RpdGxlPiYjeGE7CQkJPHBhdGggY2xhc3M9InN0MiIgZD0iTTAgODQxLjg5IEw1MjQuNDEgODQxLjg5Ii8+JiN4YTsJCTwvZz4mI3hhOwkJPGcgdHJhbnNmb3JtPSJ0cmFuc2xhdGUoMzMzLjc4LDgyNy43MTcpIHJvdGF0ZSgtOTApIiBpZD0ic2hhcGU1Mzk2LTIxNiI+JiN4YTsJCQk8dGl0bGU+0JDRgNC60YPRiC41Mzk2PC90aXRsZT4mI3hhOwkJCTxwYXRoIGNsYXNzPSJzdDIiIGQ9Ik0wIDg0MS44OSBMMTU1LjkxIDg0MS44OSIvPiYjeGE7CQk8L2c+JiN4YTsJCTxnIHRyYW5zZm9ybT0idHJhbnNsYXRlKDEwNDEuMTcsLTE4LjgzMTMpIiBpZD0ic2hhcGU1NDAyLTIxOSI+JiN4YTsJCQk8dGl0bGU+0JDRgNC60YPRiC41NDAyPC90aXRsZT4mI3hhOwkJCTxkZXNjPtCa0J/Qhiwg0J/QkdCkLCDQn9CcLTExPC9kZXNjPiYjeGE7CQkJJiN4YTsJCQkmI3hhOwkJCTxyZWN0IGNsYXNzPSJzdDQiIGhlaWdodD0iMzMuMjAzNiIgd2lkdGg9IjEyNS45MjYiIHk9IjgwOC42ODYiIHg9IjAiLz4mI3hhOwkJCTx0ZXh0IGNsYXNzPSJzdDciIHk9IjgzMS41OSIgeD0iOS4wNSI+0JrQn9CGLDx0c3BhbiBjbGFzcz0ic3Q4Ij4gPC90c3Bhbj7Qn9CR0KQsPHRzcGFuIGNsYXNzPSJzdDkiPiA8L3RzcGFuPtCf0JwtMTE8L3RleHQ+CQk8L2c+JiN4YTsJCTxnIHRyYW5zZm9ybT0idHJhbnNsYXRlKDk3NC4zOTcsLTU2MC4zNzQpIiBpZD0ic2hhcGU1NTY0LTIyNCI+JiN4YTsJCQk8dGl0bGU+0JHQu9C+0Log0YLQtdC60YHRgtGDLjMxMTk8L3RpdGxlPiYjeGE7CQkJJiN4YTsJCQkJJiN4YTsJCQkJJiN4YTsJCQkJJiN4YTsJCQkJJiN4YTsJCQkJJiN4YTsJCQkJJiN4YTsJCQkmI3hhOwkJCTxyZWN0IGNsYXNzPSJzdDQiIGhlaWdodD0iMjQuMDk0NSIgd2lkdGg9IjEyMS4zMjMiIHk9IjgxNy43OTUiIHg9IjAiLz4mI3hhOwkJPC9nPiYjeGE7CQk8ZyB0cmFuc2Zvcm09InRyYW5zbGF0ZSg5NDkuMDM5LC01MjQuNzk5KSIgaWQ9InNoYXBlNTU2Ni0yMjYiPiYjeGE7CQkJPHRpdGxlPtCR0LvQvtC6INGC0LXQutGB0YLRgy4zMTMwPC90aXRsZT4mI3hhOwkJCSYjeGE7CQkJCSYjeGE7CQkJCSYjeGE7CQkJCSYjeGE7CQkJCSYjeGE7CQkJCSYjeGE7CQkJCSYjeGE7CQkJJiN4YTsJCQk8cmVjdCBjbGFzcz0ic3Q0IiBoZWlnaHQ9IjI0LjA5NDUiIHdpZHRoPSIyMzYuNjkzIiB5PSI4MTcuNzk1IiB4PSIwIi8+JiN4YTsJCTwvZz4mI3hhOwkJPGcgdHJhbnNmb3JtPSJ0cmFuc2xhdGUoOTYxLjA3NSwtNjQyLjU3OSkiIGlkPSJzaGFwZTU1NjktMjI4Ij4mI3hhOwkJCTx0aXRsZT7QkdC70L7QuiDRgtC10LrRgdGC0YMuNTU2OTwvdGl0bGU+JiN4YTsJCQkmI3hhOwkJCQkmI3hhOwkJCQkmI3hhOwkJCQkmI3hhOwkJCQkmI3hhOwkJCQkmI3hhOwkJCQkmI3hhOwkJCSYjeGE7CQkJPHJlY3QgY2xhc3M9InN0NCIgaGVpZ2h0PSIyNC4wOTQ1IiB3aWR0aD0iMTYzLjI3NiIgeT0iODE3Ljc5NSIgeD0iMCIvPiYjeGE7CQk8L2c+JiN4YTsJCTxnIHRyYW5zZm9ybT0idHJhbnNsYXRlKDk3OS4wMTksLTYyNi4yOCkiIGlkPSJzaGFwZTU1NzEtMjMwIj4mI3hhOwkJCTx0aXRsZT7QkdC70L7QuiDRgtC10LrRgdGC0YMuNTU3MTwvdGl0bGU+JiN4YTsJCQkmI3hhOwkJCQkmI3hhOwkJCQkmI3hhOwkJCQkmI3hhOwkJCQkmI3hhOwkJCQkmI3hhOwkJCQkmI3hhOwkJCSYjeGE7CQkJPHJlY3QgY2xhc3M9InN0NCIgaGVpZ2h0PSIyNC4wOTQ1IiB3aWR0aD0iMTM1LjQ5NiIgeT0iODE3Ljc5NSIgeD0iMCIvPiYjeGE7CQk8L2c+JiN4YTsJCTxnIHRyYW5zZm9ybT0idHJhbnNsYXRlKDk3NS4xMDYsLTU5NS43MTMpIiBpZD0ic2hhcGU1NTczLTIzMiI+JiN4YTsJCQk8dGl0bGU+0JHQu9C+0Log0YLQtdC60YHRgtGDLjU1NzM8L3RpdGxlPiYjeGE7CQkJJiN4YTsJCQkJJiN4YTsJCQkJJiN4YTsJCQkJJiN4YTsJCQkJJiN4YTsJCQkJJiN4YTsJCQkJJiN4YTsJCQkmI3hhOwkJCTxyZWN0IGNsYXNzPSJzdDQiIGhlaWdodD0iMjQuMDk0NSIgd2lkdGg9IjE0Ny40MDIiIHk9IjgxNy43OTUiIHg9IjAiLz4mI3hhOwkJPC9nPiYjeGE7CQk8ZyB0cmFuc2Zvcm09InRyYW5zbGF0ZSg5NjIuMDY3LC02MDkuOTgpIiBpZD0ic2hhcGU1NTkxLTIzNCI+JiN4YTsJCQk8dGl0bGU+0JHQu9C+0Log0YLQtdC60YHRgtGDLjU1OTE8L3RpdGxlPiYjeGE7CQkJJiN4YTsJCQkJJiN4YTsJCQkJJiN4YTsJCQkJJiN4YTsJCQkJJiN4YTsJCQkJJiN4YTsJCQkJJiN4YTsJCQkmI3hhOwkJCTxyZWN0IGNsYXNzPSJzdDQiIGhlaWdodD0iMjQuMDk0NSIgd2lkdGg9IjE0Ny40MDIiIHk9IjgxNy43OTUiIHg9IjAiLz4mI3hhOwkJPC9nPiYjeGE7CQk8ZyB0cmFuc2Zvcm09InRyYW5zbGF0ZSg5ODAuMjA4LC01NzguNDIxKSIgaWQ9InNoYXBlNTYwMy0yMzYiPiYjeGE7CQkJPHRpdGxlPtCR0LvQvtC6INGC0LXQutGB0YLRgy41NjAzPC90aXRsZT4mI3hhOwkJCSYjeGE7CQkJCSYjeGE7CQkJCSYjeGE7CQkJCSYjeGE7CQkJCSYjeGE7CQkJCSYjeGE7CQkJCSYjeGE7CQkJJiN4YTsJCQk8cmVjdCBjbGFzcz0ic3Q0IiBoZWlnaHQ9IjI0LjA5NDUiIHdpZHRoPSIxMzUuNDk2IiB5PSI4MTcuNzk1IiB4PSIwIi8+JiN4YTsJCTwvZz4mI3hhOwkJPGcgdHJhbnNmb3JtPSJ0cmFuc2xhdGUoOTM4LjU1MSwtNTQxLjM4MikiIGlkPSJzaGFwZTY1MTUtMjM4Ij4mI3hhOwkJCTx0aXRsZT7QkdC70L7QuiDRgtC10LrRgdGC0YMuNjUxNTwvdGl0bGU+JiN4YTsJCQkmI3hhOwkJCQkmI3hhOwkJCQkmI3hhOwkJCQkmI3hhOwkJCQkmI3hhOwkJCQkmI3hhOwkJCQkmI3hhOwkJCSYjeGE7CQkJPHJlY3QgY2xhc3M9InN0NCIgaGVpZ2h0PSIyNC4wOTQ1IiB3aWR0aD0iMjU1LjY4NSIgeT0iODE3Ljc5NSIgeD0iMCIvPiYjeGE7CQk8L2c+JiN4YTsJPC9nPiYjeGE7PC9zdmc+;" parent="1" vertex="1">
          <mxGeometry width="1168.7" height="825" as="geometry" />
        </mxCell>
        <mxCell id="LB_BB6l1WS-i0Li-uyHr-2" value="Шар без назви" parent="0" />
        <mxCell id="LB_BB6l1WS-i0Li-uyHr-27" value="" style="rounded=0;whiteSpace=wrap;html=1;fontFamily=Times New Roman;fontSize=14;dashed=1;dashPattern=8 8;fillColor=none;" parent="LB_BB6l1WS-i0Li-uyHr-2" vertex="1">
          <mxGeometry x="300" y="135" width="300" height="335" as="geometry" />
        </mxCell>
        <mxCell id="LB_BB6l1WS-i0Li-uyHr-28" value="" style="edgeStyle=orthogonalEdgeStyle;rounded=0;orthogonalLoop=1;jettySize=auto;html=1;exitX=0.75;exitY=1;exitDx=0;exitDy=0;" parent="LB_BB6l1WS-i0Li-uyHr-2" source="LB_BB6l1WS-i0Li-uyHr-29" target="LB_BB6l1WS-i0Li-uyHr-30" edge="1">
          <mxGeometry relative="1" as="geometry" />
        </mxCell>
        <mxCell id="LB_BB6l1WS-i0Li-uyHr-29" value="Мікроконтролер" style="rounded=0;whiteSpace=wrap;html=1;fontFamily=Times New Roman;fontSize=14;" parent="LB_BB6l1WS-i0Li-uyHr-2" vertex="1">
          <mxGeometry x="390" y="255" width="120" height="60" as="geometry" />
        </mxCell>
        <mxCell id="LB_BB6l1WS-i0Li-uyHr-30" value="Дисплей&lt;br&gt;I2C LCD1602" style="rounded=0;whiteSpace=wrap;html=1;fontFamily=Times New Roman;fontSize=14;" parent="LB_BB6l1WS-i0Li-uyHr-2" vertex="1">
          <mxGeometry x="460" y="355" width="120" height="73" as="geometry" />
        </mxCell>
        <mxCell id="LB_BB6l1WS-i0Li-uyHr-31" value="" style="edgeStyle=orthogonalEdgeStyle;rounded=0;orthogonalLoop=1;jettySize=auto;html=1;entryX=0.25;entryY=0;entryDx=0;entryDy=0;" parent="LB_BB6l1WS-i0Li-uyHr-2" source="LB_BB6l1WS-i0Li-uyHr-32" target="LB_BB6l1WS-i0Li-uyHr-29" edge="1">
          <mxGeometry relative="1" as="geometry">
            <mxPoint x="420" y="245" as="targetPoint" />
          </mxGeometry>
        </mxCell>
        <mxCell id="LB_BB6l1WS-i0Li-uyHr-32" value="Інфрачервоний датчик руху&lt;br&gt;PIR&amp;nbsp;&amp;nbsp;HC-SR501" style="rounded=0;whiteSpace=wrap;html=1;fontFamily=Times New Roman;fontSize=14;" parent="LB_BB6l1WS-i0Li-uyHr-2" vertex="1">
          <mxGeometry x="320" y="155" width="120" height="60" as="geometry" />
        </mxCell>
        <mxCell id="LB_BB6l1WS-i0Li-uyHr-33" value="" style="edgeStyle=orthogonalEdgeStyle;rounded=0;orthogonalLoop=1;jettySize=auto;html=1;entryX=0.25;entryY=1;entryDx=0;entryDy=0;" parent="LB_BB6l1WS-i0Li-uyHr-2" source="LB_BB6l1WS-i0Li-uyHr-34" target="LB_BB6l1WS-i0Li-uyHr-29" edge="1">
          <mxGeometry relative="1" as="geometry" />
        </mxCell>
        <mxCell id="LB_BB6l1WS-i0Li-uyHr-34" value="Клавіатура&lt;br&gt;мембрана матрична 4*4" style="rounded=0;whiteSpace=wrap;html=1;fontFamily=Times New Roman;fontSize=14;" parent="LB_BB6l1WS-i0Li-uyHr-2" vertex="1">
          <mxGeometry x="320" y="355" width="120" height="73" as="geometry" />
        </mxCell>
        <mxCell id="LB_BB6l1WS-i0Li-uyHr-35" style="edgeStyle=orthogonalEdgeStyle;rounded=0;orthogonalLoop=1;jettySize=auto;html=1;entryX=0.75;entryY=0;entryDx=0;entryDy=0;" parent="LB_BB6l1WS-i0Li-uyHr-2" source="LB_BB6l1WS-i0Li-uyHr-36" target="LB_BB6l1WS-i0Li-uyHr-29" edge="1">
          <mxGeometry relative="1" as="geometry" />
        </mxCell>
        <mxCell id="LB_BB6l1WS-i0Li-uyHr-36" value="Датчик відкриття дверей (геркон)" style="rounded=0;whiteSpace=wrap;html=1;fontFamily=Times New Roman;fontSize=14;" parent="LB_BB6l1WS-i0Li-uyHr-2" vertex="1">
          <mxGeometry x="460" y="155" width="120" height="60" as="geometry" />
        </mxCell>
        <mxCell id="LB_BB6l1WS-i0Li-uyHr-37" value="Панель керування" style="text;html=1;align=center;verticalAlign=middle;resizable=0;points=[];autosize=1;strokeColor=none;fillColor=none;fontSize=14;fontFamily=Times New Roman;" parent="LB_BB6l1WS-i0Li-uyHr-2" vertex="1">
          <mxGeometry x="385" y="105" width="130" height="30" as="geometry" />
        </mxCell>
        <mxCell id="LB_BB6l1WS-i0Li-uyHr-38" value="" style="edgeStyle=none;orthogonalLoop=1;jettySize=auto;html=1;rounded=0;fontFamily=Architects Daughter;fontSource=https%3A%2F%2Ffonts.googleapis.com%2Fcss%3Ffamily%3DArchitects%2BDaughter;fontSize=16;endArrow=classic;sourcePerimeterSpacing=8;targetPerimeterSpacing=8;curved=1;endFill=1;" parent="LB_BB6l1WS-i0Li-uyHr-2" edge="1">
          <mxGeometry width="140" relative="1" as="geometry">
            <mxPoint x="170" y="265" as="sourcePoint" />
            <mxPoint x="390" y="265" as="targetPoint" />
            <Array as="points" />
          </mxGeometry>
        </mxCell>
        <mxCell id="LB_BB6l1WS-i0Li-uyHr-39" value="Живлення" style="text;html=1;align=center;verticalAlign=middle;resizable=0;points=[];autosize=1;strokeColor=none;fillColor=none;fontSize=14;fontFamily=Times New Roman;" parent="LB_BB6l1WS-i0Li-uyHr-2" vertex="1">
          <mxGeometry x="180" y="235" width="80" height="30" as="geometry" />
        </mxCell>
        <mxCell id="LB_BB6l1WS-i0Li-uyHr-40" value="" style="edgeStyle=none;orthogonalLoop=1;jettySize=auto;html=1;rounded=0;fontFamily=Architects Daughter;fontSource=https%3A%2F%2Ffonts.googleapis.com%2Fcss%3Ffamily%3DArchitects%2BDaughter;fontSize=16;endArrow=classic;sourcePerimeterSpacing=8;targetPerimeterSpacing=8;curved=1;startArrow=classic;startFill=1;endFill=1;" parent="LB_BB6l1WS-i0Li-uyHr-2" edge="1">
          <mxGeometry width="140" relative="1" as="geometry">
            <mxPoint x="170" y="305" as="sourcePoint" />
            <mxPoint x="390" y="305" as="targetPoint" />
            <Array as="points" />
          </mxGeometry>
        </mxCell>
        <mxCell id="LB_BB6l1WS-i0Li-uyHr-41" value="USB BOOT" style="text;html=1;align=center;verticalAlign=middle;resizable=0;points=[];autosize=1;strokeColor=none;fillColor=none;fontSize=14;fontFamily=Times New Roman;" parent="LB_BB6l1WS-i0Li-uyHr-2" vertex="1">
          <mxGeometry x="180" y="275" width="90" height="30" as="geometry" />
        </mxCell>
        <mxCell id="LB_BB6l1WS-i0Li-uyHr-42" value="Сервер" style="rounded=0;whiteSpace=wrap;html=1;fontFamily=Times New Roman;fontSize=14;" parent="LB_BB6l1WS-i0Li-uyHr-2" vertex="1">
          <mxGeometry x="745" y="255" width="120" height="60" as="geometry" />
        </mxCell>
        <mxCell id="LB_BB6l1WS-i0Li-uyHr-43" value="" style="edgeStyle=none;orthogonalLoop=1;jettySize=auto;html=1;rounded=0;fontFamily=Architects Daughter;fontSource=https%3A%2F%2Ffonts.googleapis.com%2Fcss%3Ffamily%3DArchitects%2BDaughter;fontSize=16;endArrow=classic;sourcePerimeterSpacing=8;targetPerimeterSpacing=8;curved=1;startArrow=classic;startFill=1;endFill=1;entryX=0;entryY=0.5;entryDx=0;entryDy=0;exitX=1;exitY=0.5;exitDx=0;exitDy=0;" parent="LB_BB6l1WS-i0Li-uyHr-2" source="LB_BB6l1WS-i0Li-uyHr-29" target="LB_BB6l1WS-i0Li-uyHr-42" edge="1">
          <mxGeometry width="140" relative="1" as="geometry">
            <mxPoint x="510" y="289.57" as="sourcePoint" />
            <mxPoint x="700" y="290" as="targetPoint" />
            <Array as="points" />
          </mxGeometry>
        </mxCell>
        <mxCell id="LB_BB6l1WS-i0Li-uyHr-44" value="WiFi" style="text;html=1;align=center;verticalAlign=middle;resizable=0;points=[];autosize=1;strokeColor=none;fillColor=none;fontSize=14;fontFamily=Times New Roman;" parent="LB_BB6l1WS-i0Li-uyHr-2" vertex="1">
          <mxGeometry x="620" y="255" width="50" height="30" as="geometry" />
        </mxCell>
        <mxCell id="LB_BB6l1WS-i0Li-uyHr-45" value="Живлення" style="text;html=1;align=center;verticalAlign=middle;resizable=0;points=[];autosize=1;strokeColor=none;fillColor=none;fontSize=14;fontFamily=Times New Roman;" parent="LB_BB6l1WS-i0Li-uyHr-2" vertex="1">
          <mxGeometry x="885" y="235" width="80" height="30" as="geometry" />
        </mxCell>
        <mxCell id="LB_BB6l1WS-i0Li-uyHr-46" value="" style="edgeStyle=none;orthogonalLoop=1;jettySize=auto;html=1;rounded=0;fontFamily=Architects Daughter;fontSource=https%3A%2F%2Ffonts.googleapis.com%2Fcss%3Ffamily%3DArchitects%2BDaughter;fontSize=16;endArrow=classic;sourcePerimeterSpacing=8;targetPerimeterSpacing=8;curved=1;endFill=1;entryX=1;entryY=0.25;entryDx=0;entryDy=0;" parent="LB_BB6l1WS-i0Li-uyHr-2" target="LB_BB6l1WS-i0Li-uyHr-42" edge="1">
          <mxGeometry width="140" relative="1" as="geometry">
            <mxPoint x="965" y="270" as="sourcePoint" />
            <mxPoint x="945" y="345" as="targetPoint" />
            <Array as="points" />
          </mxGeometry>
        </mxCell>
        <mxCell id="LB_BB6l1WS-i0Li-uyHr-47" value="Internet" style="text;html=1;align=center;verticalAlign=middle;resizable=0;points=[];autosize=1;strokeColor=none;fillColor=none;fontSize=14;fontFamily=Times New Roman;" parent="LB_BB6l1WS-i0Li-uyHr-2" vertex="1">
          <mxGeometry x="805" y="380" width="70" height="30" as="geometry" />
        </mxCell>
        <mxCell id="LB_BB6l1WS-i0Li-uyHr-48" value="" style="edgeStyle=none;orthogonalLoop=1;jettySize=auto;html=1;rounded=0;fontFamily=Architects Daughter;fontSource=https%3A%2F%2Ffonts.googleapis.com%2Fcss%3Ffamily%3DArchitects%2BDaughter;fontSize=16;endArrow=classic;sourcePerimeterSpacing=8;targetPerimeterSpacing=8;curved=1;endFill=1;entryX=0.5;entryY=1;entryDx=0;entryDy=0;startArrow=classic;startFill=1;exitX=0.5;exitY=0;exitDx=0;exitDy=0;" parent="LB_BB6l1WS-i0Li-uyHr-2" source="A6xLOyhmc2zc8QsNAq-b-1" target="LB_BB6l1WS-i0Li-uyHr-42" edge="1">
          <mxGeometry width="140" relative="1" as="geometry">
            <mxPoint x="965" y="305" as="sourcePoint" />
            <mxPoint x="865" y="305" as="targetPoint" />
            <Array as="points" />
          </mxGeometry>
        </mxCell>
        <mxCell id="A6xLOyhmc2zc8QsNAq-b-1" value="Пристрій віддаленого доступу (PC/смартфон)" style="rounded=0;whiteSpace=wrap;html=1;fontFamily=Times New Roman;fontSize=14;" parent="LB_BB6l1WS-i0Li-uyHr-2" vertex="1">
          <mxGeometry x="725" y="485" width="160" height="70" as="geometry" />
        </mxCell>
        <mxCell id="A6xLOyhmc2zc8QsNAq-b-3" value="&lt;p align=&quot;center&quot; class=&quot;MsoNormal&quot;&gt;&lt;span style=&quot;line-height: 107%;&quot;&gt;&lt;font style=&quot;font-size: 14px;&quot;&gt;Програмований пристрій сигналізації&lt;br&gt;Структурна схема&lt;/font&gt;&lt;span style=&quot;font-size: 18pt;&quot;&gt;&lt;/span&gt;&lt;/span&gt;&lt;/p&gt;" style="rounded=0;whiteSpace=wrap;html=1;fontFamily=Times New Roman;strokeColor=none;fillColor=none;fontSize=14;" parent="LB_BB6l1WS-i0Li-uyHr-2" vertex="1">
          <mxGeometry x="820" y="700" width="195" height="70" as="geometry" />
        </mxCell>
        <mxCell id="A6xLOyhmc2zc8QsNAq-b-5" value="" style="rounded=0;whiteSpace=wrap;html=1;fontFamily=Times New Roman;strokeColor=none;fillColor=none;fontSize=14;" parent="LB_BB6l1WS-i0Li-uyHr-2" vertex="1">
          <mxGeometry x="820" y="769" width="195" height="42" as="geometry" />
        </mxCell>
        <mxCell id="A6xLOyhmc2zc8QsNAq-b-6" value="" style="rounded=0;whiteSpace=wrap;html=1;fontFamily=Times New Roman;strokeColor=none;fillColor=none;fontSize=14;" parent="LB_BB6l1WS-i0Li-uyHr-2" vertex="1">
          <mxGeometry x="687" y="728" width="63" height="14" as="geometry" />
        </mxCell>
        <mxCell id="A6xLOyhmc2zc8QsNAq-b-7" value="" style="rounded=0;whiteSpace=wrap;html=1;fontFamily=Times New Roman;strokeColor=none;fillColor=none;fontSize=14;" parent="LB_BB6l1WS-i0Li-uyHr-2" vertex="1">
          <mxGeometry x="687" y="742" width="63" height="14" as="geometry" />
        </mxCell>
        <mxCell id="A6xLOyhmc2zc8QsNAq-b-8" value="" style="rounded=0;whiteSpace=wrap;html=1;fontFamily=Times New Roman;strokeColor=none;fillColor=none;fontSize=14;" parent="LB_BB6l1WS-i0Li-uyHr-2" vertex="1">
          <mxGeometry x="792" y="728" width="28" height="13" as="geometry" />
        </mxCell>
        <mxCell id="A6xLOyhmc2zc8QsNAq-b-11" value="&amp;nbsp;" style="rounded=0;whiteSpace=wrap;fontFamily=Times New Roman;strokeColor=none;fillColor=none;fontSize=14;verticalAlign=middle;horizontal=1;labelPadding=0;portConstraintRotation=1;flipH=0;flipV=1;direction=east;html=1;rotatable=1;rotation=-180;" parent="LB_BB6l1WS-i0Li-uyHr-2" vertex="1">
          <mxGeometry x="56" y="14" width="194" height="39" as="geometry" />
        </mxCell>
        <mxCell id="A6xLOyhmc2zc8QsNAq-b-10" value="" style="rounded=0;whiteSpace=wrap;html=1;fontFamily=Times New Roman;strokeColor=none;fillColor=none;fontSize=14;" parent="LB_BB6l1WS-i0Li-uyHr-2" vertex="1">
          <mxGeometry x="792" y="742" width="28" height="13" as="geometry" />
        </mxCell>
        <mxCell id="QF77lliwrZ9LCPE1kp7v-1" value="&lt;p align=&quot;center&quot; class=&quot;MsoNormal&quot;&gt;&lt;span style=&quot;background-color: initial; font-size: 24px;&quot;&gt;&lt;i&gt;КР ПМ-11.12.00.00 СХ&lt;/i&gt;&lt;/span&gt;&lt;/p&gt;" style="rounded=0;whiteSpace=wrap;html=1;fontFamily=Times New Roman;strokeColor=none;fillColor=none;fontSize=14;" parent="LB_BB6l1WS-i0Li-uyHr-2" vertex="1">
          <mxGeometry x="819.9970000000001" y="657.9969999999998" width="334" height="42" as="geometry" />
        </mxCell>
      </root>
    </mxGraphModel>
  </diagram>
</mxfile>
